<mxfile host="app.diagrams.net" modified="2023-10-16T15:51:41.006Z" agent="Mozilla/5.0 (Windows NT 10.0; Win64; x64) AppleWebKit/537.36 (KHTML, like Gecko) Chrome/117.0.0.0 Safari/537.36" etag="HiWrrOBr-YYZwAccKVHV" version="22.0.4" type="device">
  <diagram name="Page-1" id="USsM2cLb4Coe6pNZWOxS">
    <mxGraphModel dx="1588" dy="1004" grid="1" gridSize="10" guides="1" tooltips="1" connect="1" arrows="1" fold="1" page="1" pageScale="1" pageWidth="850" pageHeight="1100" math="0" shadow="0">
      <root>
        <mxCell id="0" />
        <mxCell id="1" parent="0" />
        <mxCell id="g0UlKLcG4n_eRabTfLo1-78" style="edgeStyle=orthogonalEdgeStyle;rounded=0;orthogonalLoop=1;jettySize=auto;html=1;entryX=0.5;entryY=1;entryDx=0;entryDy=0;" parent="1" source="g0UlKLcG4n_eRabTfLo1-1" target="g0UlKLcG4n_eRabTfLo1-6" edge="1">
          <mxGeometry relative="1" as="geometry" />
        </mxCell>
        <mxCell id="g0UlKLcG4n_eRabTfLo1-85" style="edgeStyle=orthogonalEdgeStyle;rounded=0;orthogonalLoop=1;jettySize=auto;html=1;entryX=0;entryY=0.5;entryDx=0;entryDy=0;" parent="1" source="g0UlKLcG4n_eRabTfLo1-1" target="g0UlKLcG4n_eRabTfLo1-53" edge="1">
          <mxGeometry relative="1" as="geometry" />
        </mxCell>
        <mxCell id="g0UlKLcG4n_eRabTfLo1-86" style="edgeStyle=orthogonalEdgeStyle;rounded=0;orthogonalLoop=1;jettySize=auto;html=1;entryX=0;entryY=0.5;entryDx=0;entryDy=0;" parent="1" source="g0UlKLcG4n_eRabTfLo1-1" target="g0UlKLcG4n_eRabTfLo1-83" edge="1">
          <mxGeometry relative="1" as="geometry" />
        </mxCell>
        <mxCell id="g0UlKLcG4n_eRabTfLo1-87" style="edgeStyle=orthogonalEdgeStyle;rounded=0;orthogonalLoop=1;jettySize=auto;html=1;entryX=0;entryY=0.5;entryDx=0;entryDy=0;" parent="1" source="g0UlKLcG4n_eRabTfLo1-1" target="g0UlKLcG4n_eRabTfLo1-40" edge="1">
          <mxGeometry relative="1" as="geometry" />
        </mxCell>
        <mxCell id="g0UlKLcG4n_eRabTfLo1-1" value="&lt;b&gt;User&lt;/b&gt;" style="shape=umlActor;verticalLabelPosition=bottom;verticalAlign=top;html=1;outlineConnect=0;" parent="1" vertex="1">
          <mxGeometry x="50" y="380" width="30" height="60" as="geometry" />
        </mxCell>
        <mxCell id="g0UlKLcG4n_eRabTfLo1-3" value="&lt;b&gt;&lt;font style=&quot;font-size: 16px;&quot;&gt;Data Polish&lt;/font&gt;&lt;/b&gt;" style="text;html=1;strokeColor=none;fillColor=none;align=center;verticalAlign=middle;whiteSpace=wrap;rounded=0;" parent="1" vertex="1">
          <mxGeometry x="497.5" y="30" width="90" height="30" as="geometry" />
        </mxCell>
        <mxCell id="g0UlKLcG4n_eRabTfLo1-19" style="edgeStyle=orthogonalEdgeStyle;rounded=0;orthogonalLoop=1;jettySize=auto;html=1;entryX=0;entryY=0.5;entryDx=0;entryDy=0;dashed=1;" parent="1" source="g0UlKLcG4n_eRabTfLo1-5" target="g0UlKLcG4n_eRabTfLo1-8" edge="1">
          <mxGeometry relative="1" as="geometry" />
        </mxCell>
        <mxCell id="g0UlKLcG4n_eRabTfLo1-5" value="&lt;b&gt;Login&lt;/b&gt;" style="ellipse;whiteSpace=wrap;html=1;" parent="1" vertex="1">
          <mxGeometry x="280" y="200" width="100" height="50" as="geometry" />
        </mxCell>
        <mxCell id="g0UlKLcG4n_eRabTfLo1-6" value="&lt;b&gt;Import Data&lt;/b&gt;" style="ellipse;whiteSpace=wrap;html=1;" parent="1" vertex="1">
          <mxGeometry x="282.5" y="350" width="95" height="50" as="geometry" />
        </mxCell>
        <mxCell id="g0UlKLcG4n_eRabTfLo1-8" value="" style="ellipse;whiteSpace=wrap;html=1;" parent="1" vertex="1">
          <mxGeometry x="480" y="190" width="150" height="70" as="geometry" />
        </mxCell>
        <mxCell id="g0UlKLcG4n_eRabTfLo1-9" value="&lt;b&gt;Verify login details&lt;/b&gt;" style="text;html=1;strokeColor=none;fillColor=none;align=center;verticalAlign=middle;whiteSpace=wrap;rounded=0;" parent="1" vertex="1">
          <mxGeometry x="497.5" y="210" width="115" height="30" as="geometry" />
        </mxCell>
        <mxCell id="g0UlKLcG4n_eRabTfLo1-18" style="edgeStyle=orthogonalEdgeStyle;rounded=0;orthogonalLoop=1;jettySize=auto;html=1;entryX=0;entryY=0.5;entryDx=0;entryDy=0;dashed=1;" parent="1" source="g0UlKLcG4n_eRabTfLo1-10" target="g0UlKLcG4n_eRabTfLo1-11" edge="1">
          <mxGeometry relative="1" as="geometry" />
        </mxCell>
        <mxCell id="g0UlKLcG4n_eRabTfLo1-10" value="&lt;b&gt;Register&lt;/b&gt;" style="ellipse;whiteSpace=wrap;html=1;" parent="1" vertex="1">
          <mxGeometry x="280" y="110" width="100" height="60" as="geometry" />
        </mxCell>
        <mxCell id="g0UlKLcG4n_eRabTfLo1-11" value="&lt;b&gt;Create account&lt;/b&gt;" style="ellipse;whiteSpace=wrap;html=1;" parent="1" vertex="1">
          <mxGeometry x="472.5" y="110" width="95" height="60" as="geometry" />
        </mxCell>
        <mxCell id="g0UlKLcG4n_eRabTfLo1-21" value="&amp;lt;&amp;lt;include&amp;gt;&amp;gt;" style="text;html=1;strokeColor=none;fillColor=none;align=center;verticalAlign=middle;whiteSpace=wrap;rounded=0;" parent="1" vertex="1">
          <mxGeometry x="395" y="120" width="60" height="30" as="geometry" />
        </mxCell>
        <mxCell id="g0UlKLcG4n_eRabTfLo1-23" value="&amp;lt;&amp;lt;include&amp;gt;&amp;gt;" style="text;html=1;strokeColor=none;fillColor=none;align=center;verticalAlign=middle;whiteSpace=wrap;rounded=0;" parent="1" vertex="1">
          <mxGeometry x="405" y="195" width="40" height="30" as="geometry" />
        </mxCell>
        <mxCell id="g0UlKLcG4n_eRabTfLo1-88" style="edgeStyle=orthogonalEdgeStyle;rounded=0;orthogonalLoop=1;jettySize=auto;html=1;entryX=1;entryY=0.5;entryDx=0;entryDy=0;" parent="1" source="g0UlKLcG4n_eRabTfLo1-25" target="g0UlKLcG4n_eRabTfLo1-11" edge="1">
          <mxGeometry relative="1" as="geometry">
            <Array as="points">
              <mxPoint x="940" y="400" />
              <mxPoint x="940" y="140" />
            </Array>
          </mxGeometry>
        </mxCell>
        <mxCell id="g0UlKLcG4n_eRabTfLo1-90" style="edgeStyle=orthogonalEdgeStyle;rounded=0;orthogonalLoop=1;jettySize=auto;html=1;entryX=1;entryY=0.5;entryDx=0;entryDy=0;" parent="1" source="g0UlKLcG4n_eRabTfLo1-25" target="g0UlKLcG4n_eRabTfLo1-29" edge="1">
          <mxGeometry relative="1" as="geometry" />
        </mxCell>
        <mxCell id="g0UlKLcG4n_eRabTfLo1-91" style="edgeStyle=orthogonalEdgeStyle;rounded=0;orthogonalLoop=1;jettySize=auto;html=1;entryX=1;entryY=0.5;entryDx=0;entryDy=0;" parent="1" source="g0UlKLcG4n_eRabTfLo1-25" target="g0UlKLcG4n_eRabTfLo1-30" edge="1">
          <mxGeometry relative="1" as="geometry" />
        </mxCell>
        <mxCell id="g0UlKLcG4n_eRabTfLo1-93" style="edgeStyle=orthogonalEdgeStyle;rounded=0;orthogonalLoop=1;jettySize=auto;html=1;entryX=1;entryY=0.5;entryDx=0;entryDy=0;" parent="1" source="g0UlKLcG4n_eRabTfLo1-25" target="g0UlKLcG4n_eRabTfLo1-44" edge="1">
          <mxGeometry relative="1" as="geometry" />
        </mxCell>
        <mxCell id="g0UlKLcG4n_eRabTfLo1-94" style="edgeStyle=orthogonalEdgeStyle;rounded=0;orthogonalLoop=1;jettySize=auto;html=1;entryX=1;entryY=0.5;entryDx=0;entryDy=0;" parent="1" source="g0UlKLcG4n_eRabTfLo1-25" target="g0UlKLcG4n_eRabTfLo1-57" edge="1">
          <mxGeometry relative="1" as="geometry">
            <Array as="points">
              <mxPoint x="940" y="400" />
              <mxPoint x="940" y="780" />
            </Array>
          </mxGeometry>
        </mxCell>
        <mxCell id="g0UlKLcG4n_eRabTfLo1-95" style="edgeStyle=orthogonalEdgeStyle;rounded=0;orthogonalLoop=1;jettySize=auto;html=1;entryX=1;entryY=0.5;entryDx=0;entryDy=0;" parent="1" source="g0UlKLcG4n_eRabTfLo1-25" target="g0UlKLcG4n_eRabTfLo1-58" edge="1">
          <mxGeometry relative="1" as="geometry">
            <Array as="points">
              <mxPoint x="940" y="400" />
              <mxPoint x="940" y="885" />
            </Array>
          </mxGeometry>
        </mxCell>
        <mxCell id="g0UlKLcG4n_eRabTfLo1-96" style="edgeStyle=orthogonalEdgeStyle;rounded=0;orthogonalLoop=1;jettySize=auto;html=1;entryX=1;entryY=0.5;entryDx=0;entryDy=0;" parent="1" source="g0UlKLcG4n_eRabTfLo1-25" target="g0UlKLcG4n_eRabTfLo1-83" edge="1">
          <mxGeometry relative="1" as="geometry">
            <Array as="points">
              <mxPoint x="940" y="400" />
              <mxPoint x="940" y="985" />
            </Array>
          </mxGeometry>
        </mxCell>
        <mxCell id="JCZ6EuFJy3rYRcgG7-EC-2" style="edgeStyle=orthogonalEdgeStyle;rounded=0;orthogonalLoop=1;jettySize=auto;html=1;entryX=1;entryY=0.5;entryDx=0;entryDy=0;" edge="1" parent="1" source="g0UlKLcG4n_eRabTfLo1-25" target="g0UlKLcG4n_eRabTfLo1-56">
          <mxGeometry relative="1" as="geometry" />
        </mxCell>
        <mxCell id="g0UlKLcG4n_eRabTfLo1-25" value="&lt;b&gt;System&lt;/b&gt;" style="shape=umlActor;verticalLabelPosition=bottom;verticalAlign=top;html=1;outlineConnect=0;" parent="1" vertex="1">
          <mxGeometry x="1040" y="370" width="30" height="60" as="geometry" />
        </mxCell>
        <mxCell id="g0UlKLcG4n_eRabTfLo1-37" style="edgeStyle=orthogonalEdgeStyle;rounded=0;orthogonalLoop=1;jettySize=auto;html=1;entryX=0;entryY=0.5;entryDx=0;entryDy=0;dashed=1;" parent="1" source="g0UlKLcG4n_eRabTfLo1-26" target="g0UlKLcG4n_eRabTfLo1-29" edge="1">
          <mxGeometry relative="1" as="geometry" />
        </mxCell>
        <mxCell id="g0UlKLcG4n_eRabTfLo1-54" value="" style="edgeStyle=orthogonalEdgeStyle;rounded=0;orthogonalLoop=1;jettySize=auto;html=1;dashed=1;" parent="1" source="g0UlKLcG4n_eRabTfLo1-26" target="g0UlKLcG4n_eRabTfLo1-30" edge="1">
          <mxGeometry relative="1" as="geometry" />
        </mxCell>
        <mxCell id="g0UlKLcG4n_eRabTfLo1-26" value="&lt;b&gt;Check file type &lt;br&gt;and file not blank&lt;/b&gt;" style="ellipse;whiteSpace=wrap;html=1;" parent="1" vertex="1">
          <mxGeometry x="460" y="290" width="120" height="70" as="geometry" />
        </mxCell>
        <mxCell id="g0UlKLcG4n_eRabTfLo1-29" value="&lt;b&gt;Upload file to blob&lt;/b&gt;" style="ellipse;whiteSpace=wrap;html=1;" parent="1" vertex="1">
          <mxGeometry x="690" y="285" width="120" height="80" as="geometry" />
        </mxCell>
        <mxCell id="g0UlKLcG4n_eRabTfLo1-30" value="&lt;b&gt;Show error message&lt;/b&gt;" style="ellipse;whiteSpace=wrap;html=1;" parent="1" vertex="1">
          <mxGeometry x="471.25" y="410" width="97.5" height="60" as="geometry" />
        </mxCell>
        <mxCell id="g0UlKLcG4n_eRabTfLo1-33" value="&amp;lt;&amp;lt;extend&amp;gt;&amp;gt;" style="text;html=1;strokeColor=none;fillColor=none;align=center;verticalAlign=middle;whiteSpace=wrap;rounded=0;" parent="1" vertex="1">
          <mxGeometry x="385" y="780" width="40" height="30" as="geometry" />
        </mxCell>
        <mxCell id="g0UlKLcG4n_eRabTfLo1-35" value="&amp;lt;&amp;lt;extend&amp;gt;&amp;gt;" style="text;html=1;strokeColor=none;fillColor=none;align=center;verticalAlign=middle;whiteSpace=wrap;rounded=0;" parent="1" vertex="1">
          <mxGeometry x="540" y="370" width="40" height="30" as="geometry" />
        </mxCell>
        <mxCell id="g0UlKLcG4n_eRabTfLo1-36" value="&amp;lt;&amp;lt;extend&amp;gt;&amp;gt;" style="text;html=1;strokeColor=none;fillColor=none;align=center;verticalAlign=middle;whiteSpace=wrap;rounded=0;" parent="1" vertex="1">
          <mxGeometry x="620" y="290" width="40" height="30" as="geometry" />
        </mxCell>
        <mxCell id="g0UlKLcG4n_eRabTfLo1-38" value="&amp;lt;&amp;lt;include&amp;gt;&amp;gt;" style="text;html=1;strokeColor=none;fillColor=none;align=center;verticalAlign=middle;whiteSpace=wrap;rounded=0;" parent="1" vertex="1">
          <mxGeometry x="395" y="300" width="40" height="30" as="geometry" />
        </mxCell>
        <mxCell id="g0UlKLcG4n_eRabTfLo1-59" style="edgeStyle=orthogonalEdgeStyle;rounded=0;orthogonalLoop=1;jettySize=auto;html=1;entryX=0;entryY=0.5;entryDx=0;entryDy=0;dashed=1;" parent="1" source="g0UlKLcG4n_eRabTfLo1-40" target="g0UlKLcG4n_eRabTfLo1-56" edge="1">
          <mxGeometry relative="1" as="geometry" />
        </mxCell>
        <mxCell id="g0UlKLcG4n_eRabTfLo1-40" value="&lt;b&gt;Preview Data&lt;/b&gt;" style="ellipse;whiteSpace=wrap;html=1;" parent="1" vertex="1">
          <mxGeometry x="282.5" y="530" width="107.5" height="70" as="geometry" />
        </mxCell>
        <mxCell id="g0UlKLcG4n_eRabTfLo1-46" style="edgeStyle=orthogonalEdgeStyle;rounded=0;orthogonalLoop=1;jettySize=auto;html=1;entryX=0;entryY=0.5;entryDx=0;entryDy=0;dashed=1;" parent="1" source="g0UlKLcG4n_eRabTfLo1-42" target="g0UlKLcG4n_eRabTfLo1-43" edge="1">
          <mxGeometry relative="1" as="geometry" />
        </mxCell>
        <mxCell id="g0UlKLcG4n_eRabTfLo1-42" value="&lt;b&gt;Clean Data&lt;/b&gt;" style="ellipse;whiteSpace=wrap;html=1;" parent="1" vertex="1">
          <mxGeometry x="290" y="645" width="100" height="65" as="geometry" />
        </mxCell>
        <mxCell id="g0UlKLcG4n_eRabTfLo1-48" style="edgeStyle=orthogonalEdgeStyle;rounded=0;orthogonalLoop=1;jettySize=auto;html=1;entryX=0;entryY=0.5;entryDx=0;entryDy=0;dashed=1;" parent="1" source="g0UlKLcG4n_eRabTfLo1-43" target="g0UlKLcG4n_eRabTfLo1-44" edge="1">
          <mxGeometry relative="1" as="geometry" />
        </mxCell>
        <mxCell id="g0UlKLcG4n_eRabTfLo1-43" value="&lt;b&gt;Choose cleaning options&lt;/b&gt;" style="ellipse;whiteSpace=wrap;html=1;" parent="1" vertex="1">
          <mxGeometry x="497.5" y="642.5" width="107.5" height="70" as="geometry" />
        </mxCell>
        <mxCell id="g0UlKLcG4n_eRabTfLo1-44" value="&lt;b&gt;Fix data according to chosen options&lt;/b&gt;" style="ellipse;whiteSpace=wrap;html=1;" parent="1" vertex="1">
          <mxGeometry x="710" y="632.5" width="120" height="90" as="geometry" />
        </mxCell>
        <mxCell id="g0UlKLcG4n_eRabTfLo1-47" value="&amp;lt;&amp;lt;include&amp;gt;&amp;gt;" style="text;html=1;strokeColor=none;fillColor=none;align=center;verticalAlign=middle;whiteSpace=wrap;rounded=0;" parent="1" vertex="1">
          <mxGeometry x="420" y="642.5" width="40" height="30" as="geometry" />
        </mxCell>
        <mxCell id="g0UlKLcG4n_eRabTfLo1-50" value="&amp;lt;&amp;lt;include&amp;gt;&amp;gt;" style="text;html=1;strokeColor=none;fillColor=none;align=center;verticalAlign=middle;whiteSpace=wrap;rounded=0;" parent="1" vertex="1">
          <mxGeometry x="630" y="645" width="40" height="30" as="geometry" />
        </mxCell>
        <mxCell id="g0UlKLcG4n_eRabTfLo1-53" value="&lt;b&gt;Export Data&lt;/b&gt;" style="ellipse;whiteSpace=wrap;html=1;" parent="1" vertex="1">
          <mxGeometry x="290" y="810" width="95" height="50" as="geometry" />
        </mxCell>
        <mxCell id="g0UlKLcG4n_eRabTfLo1-56" value="&lt;b&gt;Show first&lt;br&gt;&amp;nbsp;100 rows&lt;/b&gt;" style="ellipse;whiteSpace=wrap;html=1;" parent="1" vertex="1">
          <mxGeometry x="521" y="525" width="139" height="80" as="geometry" />
        </mxCell>
        <mxCell id="g0UlKLcG4n_eRabTfLo1-57" value="&lt;b&gt;Export to CSV file&lt;/b&gt;" style="ellipse;whiteSpace=wrap;html=1;" parent="1" vertex="1">
          <mxGeometry x="497.5" y="750" width="100" height="60" as="geometry" />
        </mxCell>
        <mxCell id="g0UlKLcG4n_eRabTfLo1-58" value="&lt;b style=&quot;border-color: var(--border-color);&quot;&gt;Export to JSON file&lt;/b&gt;" style="ellipse;whiteSpace=wrap;html=1;" parent="1" vertex="1">
          <mxGeometry x="500" y="850" width="110" height="70" as="geometry" />
        </mxCell>
        <mxCell id="g0UlKLcG4n_eRabTfLo1-60" style="edgeStyle=orthogonalEdgeStyle;rounded=0;orthogonalLoop=1;jettySize=auto;html=1;entryX=-0.071;entryY=0.58;entryDx=0;entryDy=0;entryPerimeter=0;dashed=1;" parent="1" source="g0UlKLcG4n_eRabTfLo1-6" target="g0UlKLcG4n_eRabTfLo1-26" edge="1">
          <mxGeometry relative="1" as="geometry" />
        </mxCell>
        <mxCell id="g0UlKLcG4n_eRabTfLo1-61" value="&amp;lt;&amp;lt;include&amp;gt;&amp;gt;" style="text;html=1;strokeColor=none;fillColor=none;align=center;verticalAlign=middle;whiteSpace=wrap;rounded=0;" parent="1" vertex="1">
          <mxGeometry x="431.25" y="530" width="40" height="30" as="geometry" />
        </mxCell>
        <mxCell id="g0UlKLcG4n_eRabTfLo1-62" style="edgeStyle=orthogonalEdgeStyle;rounded=0;orthogonalLoop=1;jettySize=auto;html=1;entryX=0.946;entryY=0.245;entryDx=0;entryDy=0;entryPerimeter=0;dashed=1;" parent="1" source="g0UlKLcG4n_eRabTfLo1-57" target="g0UlKLcG4n_eRabTfLo1-53" edge="1">
          <mxGeometry relative="1" as="geometry" />
        </mxCell>
        <mxCell id="g0UlKLcG4n_eRabTfLo1-63" style="edgeStyle=orthogonalEdgeStyle;rounded=0;orthogonalLoop=1;jettySize=auto;html=1;entryX=0.946;entryY=0.878;entryDx=0;entryDy=0;entryPerimeter=0;dashed=1;" parent="1" source="g0UlKLcG4n_eRabTfLo1-58" target="g0UlKLcG4n_eRabTfLo1-53" edge="1">
          <mxGeometry relative="1" as="geometry" />
        </mxCell>
        <mxCell id="g0UlKLcG4n_eRabTfLo1-65" value="&amp;lt;&amp;lt;extend&amp;gt;&amp;gt;" style="text;html=1;strokeColor=none;fillColor=none;align=center;verticalAlign=middle;whiteSpace=wrap;rounded=0;" parent="1" vertex="1">
          <mxGeometry x="415" y="890" width="40" height="30" as="geometry" />
        </mxCell>
        <mxCell id="g0UlKLcG4n_eRabTfLo1-67" style="edgeStyle=orthogonalEdgeStyle;rounded=0;orthogonalLoop=1;jettySize=auto;html=1;entryX=0.092;entryY=0.129;entryDx=0;entryDy=0;entryPerimeter=0;" parent="1" source="g0UlKLcG4n_eRabTfLo1-1" edge="1">
          <mxGeometry relative="1" as="geometry">
            <mxPoint x="279.8000000000002" y="139.97000000000003" as="targetPoint" />
            <Array as="points">
              <mxPoint x="65" y="230" />
              <mxPoint x="150" y="230" />
              <mxPoint x="150" y="140" />
            </Array>
          </mxGeometry>
        </mxCell>
        <mxCell id="g0UlKLcG4n_eRabTfLo1-71" style="edgeStyle=orthogonalEdgeStyle;rounded=0;orthogonalLoop=1;jettySize=auto;html=1;entryX=0.108;entryY=0.237;entryDx=0;entryDy=0;entryPerimeter=0;" parent="1" source="g0UlKLcG4n_eRabTfLo1-1" edge="1">
          <mxGeometry relative="1" as="geometry">
            <mxPoint x="290.1999999999998" y="240.41000000000008" as="targetPoint" />
            <Array as="points">
              <mxPoint x="130" y="410" />
              <mxPoint x="130" y="290" />
              <mxPoint x="290" y="290" />
            </Array>
          </mxGeometry>
        </mxCell>
        <mxCell id="g0UlKLcG4n_eRabTfLo1-82" style="edgeStyle=orthogonalEdgeStyle;rounded=0;orthogonalLoop=1;jettySize=auto;html=1;entryX=-0.01;entryY=0.638;entryDx=0;entryDy=0;entryPerimeter=0;" parent="1" source="g0UlKLcG4n_eRabTfLo1-1" target="g0UlKLcG4n_eRabTfLo1-42" edge="1">
          <mxGeometry relative="1" as="geometry" />
        </mxCell>
        <mxCell id="g0UlKLcG4n_eRabTfLo1-83" value="&lt;b&gt;Job Status&lt;/b&gt;" style="ellipse;whiteSpace=wrap;html=1;" parent="1" vertex="1">
          <mxGeometry x="288.75" y="960" width="95" height="50" as="geometry" />
        </mxCell>
        <mxCell id="JCZ6EuFJy3rYRcgG7-EC-5" value="" style="rounded=0;whiteSpace=wrap;html=1;fillColor=none;strokeWidth=3;" vertex="1" parent="1">
          <mxGeometry x="220" y="30" width="660" height="1020" as="geometry" />
        </mxCell>
        <mxCell id="JCZ6EuFJy3rYRcgG7-EC-8" style="edgeStyle=orthogonalEdgeStyle;rounded=0;orthogonalLoop=1;jettySize=auto;html=1;entryX=0.638;entryY=0.186;entryDx=0;entryDy=0;entryPerimeter=0;" edge="1" parent="1" source="g0UlKLcG4n_eRabTfLo1-25" target="JCZ6EuFJy3rYRcgG7-EC-5">
          <mxGeometry relative="1" as="geometry" />
        </mxCell>
      </root>
    </mxGraphModel>
  </diagram>
</mxfile>
